<svg width="80" height="80" viewBox="0 0 80 80" fill="none" xmlns="http://www.w3.org/2000/svg">
<path fill-rule="evenodd" clip-rule="evenodd" d="M30 60C46.5686 60 60 46.5686 60 30C60 13.4314 46.5686 0 30 0C13.4314 0 0 13.4314 0 30C0 46.5686 13.4314 60 30 60ZM30 49C40.4934 49 49 40.4934 49 30C49 19.5066 40.4934 11 30 11C19.5066 11 11 19.5066 11 30C11 40.4934 19.5066 49 30 49Z" fill="#C4C4C4"/>
<rect x="50.1924" y="41" width="42.0054" height="13" rx="6.5" transform="rotate(45 50.1924 41)" fill="#C4C4C4"/>
</svg>
