<?xml version="1.0" encoding="UTF-8" standalone="no"?>
<!-- Created with Inkscape (http://www.inkscape.org/) -->

<svg
   xmlns:dc="http://purl.org/dc/elements/1.1/"
   xmlns:cc="http://creativecommons.org/ns#"
   xmlns:rdf="http://www.w3.org/1999/02/22-rdf-syntax-ns#"
   xmlns:svg="http://www.w3.org/2000/svg"
   xmlns="http://www.w3.org/2000/svg"
   xmlns:sodipodi="http://sodipodi.sourceforge.net/DTD/sodipodi-0.dtd"
   xmlns:inkscape="http://www.inkscape.org/namespaces/inkscape"
   version="1.1"
   id="svg50"
   width="475.01633"
   height="419.44492">
  <metadata
     id="metadata56">
    <rdf:RDF>
      <cc:Work
         rdf:about="">
        <dc:format>image/svg+xml</dc:format>
        <dc:type
           rdf:resource="http://purl.org/dc/dcmitype/StillImage" />
      </cc:Work>
    </rdf:RDF>
  </metadata>
  <defs
     id="defs54" />
  <sodipodi:namedview
     pagecolor="#ffffff"
     bordercolor="#666666"
     borderopacity="1"
     objecttolerance="10"
     gridtolerance="10"
     guidetolerance="10"
     inkscape:pageopacity="0"
     inkscape:pageshadow="2"
     inkscape:window-width="640"
     inkscape:window-height="480"
     id="namedview52" />
  <inkscape:clipboard
     style="font-variant-east_asian:normal;opacity:1;vector-effect:none;fill:#f2f2f2;fill-opacity:1;stroke:#f2f2f2;stroke-width:7.55905516;stroke-linecap:butt;stroke-linejoin:miter;stroke-miterlimit:4;stroke-dasharray:none;stroke-dashoffset:0;stroke-opacity:1"
     min="173.7156,385.74994"
     max="648.73188,805.19482" />
  <g
     style="font-style:normal;font-weight:normal;font-size:40px;line-height:1.25;font-family:sans-serif;letter-spacing:0px;word-spacing:0px;fill:#f2f2f2;fill-opacity:1;stroke:#f2f2f2"
     id="g4738"
     transform="matrix(3.2894456,-2.0538916,2.0538916,3.2894456,-1944.073,-1258.5637)">
    <g
       transform="matrix(0.97147995,0.07799907,-0.07799907,0.97147995,167.195,460.73977)"
       style="font-style:normal;font-weight:normal;font-size:40px;line-height:1.25;font-family:sans-serif;letter-spacing:0px;word-spacing:0px;fill:#f2f2f2;fill-opacity:1;stroke:#f2f2f2"
       id="g4593">
      <path
         sodipodi:nodetypes="cccscccccsccccccccc"
         inkscape:connector-curvature="0"
         id="path4538"
         d="m 104.50285,124.55358 -19.649656,-0.38772 c -6.478586,-0.22275 -6.467102,-0.19113 -14.293862,-0.64051 0,0 2.792565,6.45199 8.409518,5.95995 l 5.599857,-0.49054 8.773904,-2.54801 -1.354724,2.46902 4.161939,-3.36824 -31.224876,10.3311 c 0,0 1.446205,5.02108 6.359117,3.05339 4.260875,-1.70655 10.272529,-6.13531 10.272529,-6.13531 l 11.786015,-6.34996 -31.234353,17.79874 c 0,0 2.313106,4.26371 8.266979,1.67996 6.010045,-2.63993 14.538113,-7.07238 14.538113,-7.07238 l 1.17693,-0.73051 18.41257,-13.56898 -12.514963,4.36219 z"
         style="fill:#f2f2f2;stroke:#f2f2f2;stroke-width:2;stroke-linecap:butt;stroke-linejoin:round;stroke-miterlimit:4;stroke-dasharray:none;stroke-opacity:1" />
      <g
         transform="matrix(0.59905872,0.83301774,-0.83301774,0.59905872,477.94138,-413.31737)"
         id="g4583"
         style="font-style:normal;font-weight:normal;font-size:40px;line-height:1.25;font-family:sans-serif;letter-spacing:0px;word-spacing:0px;fill:#f2f2f2;fill-opacity:1;stroke:#f2f2f2">
        <path
           d="m 237.06364,656.32174 v 2.8125 h -1.21094 q -4.86328,0 -6.52343,-1.44531 -1.64063,-1.44531 -1.64063,-5.76172 v -4.66797 q 0,-2.94922 -1.05469,-4.08203 -1.05468,-1.13281 -3.82812,-1.13281 h -1.19141 v -2.79297 h 1.19141 q 2.79297,0 3.82812,-1.11328 1.05469,-1.13282 1.05469,-4.04297 v -4.6875 q 0,-4.31641 1.64063,-5.74219 1.66015,-1.44531 6.52343,-1.44531 h 1.21094 v 2.79297 h -1.32812 q -2.75391,0 -3.59375,0.85937 -0.83985,0.85938 -0.83985,3.61328 v 4.84375 q 0,3.06641 -0.89843,4.45313 -0.87891,1.38672 -3.02735,1.875 2.16797,0.52734 3.04688,1.91406 0.8789,1.38672 0.8789,4.43359 v 4.84375 q 0,2.75391 0.83985,3.61329 0.83984,0.85937 3.59375,0.85937 z"
           style="letter-spacing:-6.32000017px;fill:#f2f2f2;fill-opacity:1;stroke:#f2f2f2"
           id="path4554"
           inkscape:connector-curvature="0" />
        <path
           d="m 247.31646,656.15017 h 1.36719 q 2.73437,0 3.55468,-0.83984 0.83985,-0.83985 0.83985,-3.63282 v -4.84375 q 0,-3.04687 0.8789,-4.43359 0.87891,-1.38672 3.04688,-1.91406 -2.16797,-0.48828 -3.04688,-1.875 -0.8789,-1.38672 -0.8789,-4.45313 v -4.84375 q 0,-2.77343 -0.83985,-3.61328 -0.82031,-0.85937 -3.55468,-0.85937 h -1.36719 v -2.79297 h 1.23047 q 4.86328,0 6.48437,1.44531 1.64063,1.42578 1.64063,5.74219 v 4.6875 q 0,2.91015 1.05468,4.04297 1.05469,1.11328 3.82813,1.11328 h 1.21094 v 2.79297 h -1.21094 q -2.77344,0 -3.82813,1.13281 -1.05468,1.13281 -1.05468,4.08203 v 4.66797 q 0,4.31641 -1.64063,5.76172 -1.62109,1.44531 -6.48437,1.44531 h -1.23047 z"
           style="letter-spacing:-6.32000017px;fill:#f2f2f2;fill-opacity:1;stroke:#f2f2f2"
           id="path4556"
           inkscape:connector-curvature="0" />
        <path
           inkscape:connector-curvature="0"
           style="font-style:normal;font-weight:normal;font-size:40px;line-height:1.25;font-family:sans-serif;letter-spacing:-6.32000017px;word-spacing:0px;fill:#f2f2f2;fill-opacity:1;stroke:#f2f2f2;stroke-width:7.55905533;stroke-miterlimit:4;stroke-dasharray:none;stroke-opacity:1"
           d="m 282.10432,588.08421 c -0.14599,0.44819 -0.29036,0.90921 -0.43313,1.38308 l -0.79383,2.63493"
           id="path4689"
           transform="matrix(0.24690272,-0.07438528,0.07438528,0.24690272,117.90884,504.89692)" />
      </g>
      <path
         sodipodi:nodetypes="cccccsccccccccccccc"
         inkscape:connector-curvature="0"
         id="path4536"
         d="m 133.80357,119.91815 -35.151786,4.7247 -6.425594,1.88989 -11.58909,18.7303 10.833138,17.36642 c 0,0 6.992559,-1.13393 2.078868,-9.26041 -4.91369,-8.12649 -3.779763,-7.18155 -3.779763,-7.18155 l 5.858632,-8.31548 h 13.418155 l 4.7247,2.64583 -1.88988,5.29167 -11.37343,8.34672 c 0,0 -2.162725,10.54928 4.82984,9.03737 0.94494,-5.48065 11.45728,-11.90343 11.45728,-11.90343 l 17.17127,-8.72098 4.83271,-6.63853 6.50503,0.17522 -0.80278,-17.06229 z"
         style="fill:#f2f2f2;fill-opacity:1;stroke:#f2f2f2;stroke-width:2;stroke-linecap:butt;stroke-linejoin:round;stroke-miterlimit:4;stroke-dasharray:none;stroke-opacity:1" />
    </g>
    <path
       style="font-style:normal;font-weight:normal;font-size:40px;line-height:1.25;font-family:sans-serif;letter-spacing:-6.32000017px;word-spacing:0px;fill:#f2f2f2;fill-opacity:1;stroke:#f2f2f2;stroke-width:1.94921231;stroke-miterlimit:4;stroke-dasharray:none;stroke-opacity:1"
       d="m 249.30191,615.65037 c 1.29083,0.66555 2.58144,2.42898 3.87185,5.29028 l 0.49784,1.10388 -2.54604,1.14823 -0.546,-1.21071 c -0.75478,-1.6736 -1.40198,-3.37699 -2.15443,-3.65185 -0.70012,-0.2558 0.38086,-1.24882 0.87675,-2.67985"
       id="path4687"
       inkscape:connector-curvature="0"
       sodipodi:nodetypes="csccscc" />
  </g>
  <rect
     y="113.93377"
     x="217.28943"
     height="164.40851"
     width="58.920422"
     id="rect21"
     style="font-style:normal;font-weight:normal;font-size:40px;line-height:1.25;font-family:sans-serif;letter-spacing:0px;word-spacing:0px;fill:#f2f2f2;fill-opacity:1;stroke:#f2f2f2;stroke-width:6.98493433;stroke-miterlimit:4;stroke-dasharray:none;stroke-opacity:1"
     transform="matrix(0.95948444,-0.2817616,0.25792317,0.96616543,0,0)" />
  <rect
     y="113.63092"
     x="276.78317"
     height="127.0312"
     width="146.41544"
     id="rect4540"
     style="font-style:normal;font-weight:normal;font-size:40px;line-height:1.25;font-family:sans-serif;letter-spacing:0px;word-spacing:0px;fill:#f2f2f2;fill-opacity:1;stroke:#f2f2f2;stroke-width:7.5591197;stroke-linejoin:round;stroke-miterlimit:4;stroke-dasharray:none;stroke-opacity:1"
     transform="matrix(0.96814775,-0.25037957,0.25602944,0.96666899,0,0)" />
</svg>
